<?xml version="1.0" standalone="no"?><!DOCTYPE svg PUBLIC "-//W3C//DTD SVG 1.1//EN" "http://www.w3.org/Graphics/SVG/1.1/DTD/svg11.dtd"><svg t="1505017342979" class="icon" style="" viewBox="0 0 1024 1024" version="1.1" xmlns="http://www.w3.org/2000/svg" p-id="6566" xmlns:xlink="http://www.w3.org/1999/xlink" width="20" height="20"><defs><style type="text/css"></style></defs><path d="M512 33.984c-265.216 0-480 214.848-480 480 0 265.088 214.784 480 480 480 265.152 0 480-214.848 480-480C992 248.832 777.152 33.984 512 33.984zM433.984 393.856 433.984 193.28l160.128 0 0 200.576 96.96 0-176.896 245.76L513.984 639.616l-176.896-245.76L433.984 393.856zM795.456 754.88 228.544 754.88 228.544 574.72l61.952 0 0 117.632 443.392 0L733.888 574.72l61.568 0L795.456 754.88z" p-id="6567" fill="#ffffff"></path></svg>