<?xml version="1.0" standalone="no"?><!DOCTYPE svg PUBLIC "-//W3C//DTD SVG 1.1//EN" "http://www.w3.org/Graphics/SVG/1.1/DTD/svg11.dtd"><svg t="1504165695558" class="icon" style="" viewBox="0 0 1024 1024" version="1.1" xmlns="http://www.w3.org/2000/svg" p-id="656" xmlns:xlink="http://www.w3.org/1999/xlink" width="20" height="20"><defs><style type="text/css"></style></defs><path d="M988.691315 534.163022c-18.53642 0-33.563985 15.096165-33.563985 33.708352v252.839266c0 74.352505-60.228006 134.844673-134.261059 134.844674H205.523477c-74.033052 0-134.261059-60.491145-134.261058-134.844674V567.871374c0-18.612187-15.027565-33.708353-33.566033-33.708352-18.53642 0-33.563985 15.096165-33.563985 33.708352v252.839266c0 111.529781 90.343546 202.265474 201.3921 202.265475h615.342794c111.047531 0 201.3921-90.736717 201.3921-202.265475V567.871374c-0.002048-18.612187-15.029613-33.708353-33.56808-33.708352z" fill="#e6e6e6" p-id="657"></path><path d="M487.786136 745.144832c11.428608 18.655191 38.42744 18.655191 49.856048 0l171.386117-279.721375c12.00096-19.581807-2.027293-44.80215-24.927512-44.802151H563.063209V55.417793c0-27.922377-22.542883-50.564577-50.350585-50.564577-27.805654 0-50.346489 22.6422-50.346489 50.564577v365.203513H341.32446c-22.899195 0-36.928472 25.211128-24.927512 44.802151l171.389188 279.721375z" fill="#e6e6e6" p-id="658"></path></svg>