<?xml version="1.0" standalone="no"?><!DOCTYPE svg PUBLIC "-//W3C//DTD SVG 1.1//EN" "http://www.w3.org/Graphics/SVG/1.1/DTD/svg11.dtd"><svg t="1505221366235" class="icon" style="" viewBox="0 0 1024 1024" version="1.1" xmlns="http://www.w3.org/2000/svg" p-id="3945" xmlns:xlink="http://www.w3.org/1999/xlink" width="50" height="50"><defs><style type="text/css"></style></defs><path d="M189.7984 870.4l209.7152-209.7152a25.856 25.856 0 0 0 0-36.1984 25.856 25.856 0 0 0-36.1984 0L153.6 834.2016V691.2a25.2928 25.2928 0 0 0-25.6-25.4976c-13.7216 0-25.6 11.4176-25.6 25.4976v205.0048a25.2928 25.2928 0 0 0 27.8016 25.3952h202.752A25.2928 25.2928 0 0 0 358.4 896c0-13.7216-11.4176-25.6-25.4976-25.6H189.7984zM834.2016 153.6l-209.7152 209.7152a25.856 25.856 0 0 0 0 36.1984c9.728 9.728 26.2144 9.984 36.1984 0L870.4 189.7984v143.104c0 14.4896 11.4688 25.4976 25.6 25.4976 13.7216 0 25.6-11.4176 25.6-25.4976V127.8976A25.2416 25.2416 0 0 0 896.1024 102.4h-205.0048a25.2928 25.2928 0 0 0-25.4976 25.6c0 13.7216 11.4176 25.6 25.4976 25.6h143.104z" p-id="3946" fill="#ffffff"></path></svg>