<?xml version="1.0" standalone="no"?><!DOCTYPE svg PUBLIC "-//W3C//DTD SVG 1.1//EN" "http://www.w3.org/Graphics/SVG/1.1/DTD/svg11.dtd"><svg t="1505201814042" class="icon" style="" viewBox="0 0 1024 1024" version="1.1" xmlns="http://www.w3.org/2000/svg" p-id="2390" xmlns:xlink="http://www.w3.org/1999/xlink" width="20" height="20"><defs><style type="text/css"></style></defs><path d="M768 937.353846h-567.138462c-63.803077 0-115.790769-51.987692-115.790769-115.790769V507.273846c0-63.803077 51.987692-115.790769 115.790769-115.790769h117.366154c13.390769-5.513846 88.221538-42.535385 95.31077-241.033846 0-33.083077 24.418462-58.289231 60.652307-63.015385 58.289231-7.876923 133.907692 31.507692 154.387693 102.4 18.116923 64.590769 0 150.449231-14.178462 201.649231h208.738462c33.870769 0 66.166154 14.966154 88.221538 40.96 22.055385 25.993846 31.507692 60.652308 25.206154 94.523077l-55.138462 314.289231c-8.664615 55.926154-56.713846 96.098462-113.427692 96.098461z m-567.138462-482.067692c-29.144615 0-52.775385 23.630769-52.775384 52.775384v314.289231c0 29.144615 23.630769 52.775385 52.775384 52.775385h567.138462c25.993846 0 47.261538-18.116923 51.987692-43.323077l55.138462-314.289231c2.363077-15.753846-1.575385-30.72-11.815385-43.323077-10.24-11.815385-24.418462-18.904615-40.172307-18.904615h-252.061539c-10.24 0-19.692308-4.726154-25.993846-13.390769-5.513846-8.664615-7.089231-19.692308-3.938462-29.144616 13.390769-35.446154 44.110769-141.784615 25.993847-204.8-8.664615-29.932308-35.446154-48.049231-57.501539-54.350769-18.116923-5.513846-30.72-3.150769-34.658461-1.575385v0.787693c-8.664615 268.603077-133.907692 299.323077-148.086154 301.686154-1.575385 0-3.938462 0.787692-5.513846 0.787692H200.861538z" fill="#ffffff" p-id="2391"></path><path d="M200.861538 423.778462c-46.473846 0-84.283077 37.809231-84.283076 84.283076v314.289231c0 46.473846 37.809231 84.283077 84.283076 84.283077h72.467693V423.778462h-72.467693z" fill="#ffffff" p-id="2392"></path><path d="M273.329231 937.353846h-72.467693c-63.803077 0-115.790769-51.987692-115.790769-115.790769V507.273846c0-63.803077 51.987692-115.790769 115.790769-115.790769h72.467693c17.329231 0 31.507692 14.178462 31.507692 31.507692V905.846154c0 17.329231-14.178462 31.507692-31.507692 31.507692z m-72.467693-482.067692c-29.144615 0-52.775385 23.630769-52.775384 52.775384v314.289231c0 29.144615 23.630769 52.775385 52.775384 52.775385h40.96V455.286154h-40.96z" fill="#ffffff" p-id="2393"></path></svg>