<?xml version="1.0" standalone="no"?><!DOCTYPE svg PUBLIC "-//W3C//DTD SVG 1.1//EN" "http://www.w3.org/Graphics/SVG/1.1/DTD/svg11.dtd"><svg t="1504165595793" class="icon" style="" viewBox="0 0 1024 1024" version="1.1" xmlns="http://www.w3.org/2000/svg" p-id="2588" xmlns:xlink="http://www.w3.org/1999/xlink" width="20" height="20"><defs><style type="text/css"></style></defs><path d="M555.52 714.24c30.72-17.92 64-40.96 92.16-64 76.8-64 120.32-133.12 120.32-199.68 0-87.04-53.76-140.8-125.44-140.8-33.28 0-64 12.8-89.6 35.84L512 386.56l-35.84-35.84-7.68-7.68c-25.6-23.04-56.32-35.84-89.6-35.84-69.12 0-125.44 53.76-125.44 145.92 0 69.12 43.52 135.68 120.32 199.68 28.16 23.04 58.88 46.08 92.16 64 17.92 10.24 33.28 17.92 43.52 23.04 12.8-5.12 28.16-12.8 46.08-25.6zM519.68 307.2c33.28-30.72 76.8-48.64 122.88-48.64 87.04 0 176.64 66.56 176.64 192 0 197.12-276.48 330.24-286.72 335.36l-15.36 7.68c-5.12 2.56-10.24 2.56-12.8 0l-10.24-5.12C481.28 780.8 204.8 647.68 204.8 453.12c0-128 89.6-197.12 176.64-197.12 46.08 0 89.6 17.92 122.88 51.2l7.68 7.68 7.68-7.68z" fill="#e6e6e6" p-id="2589"></path></svg>