<?xml version="1.0" standalone="no"?><!DOCTYPE svg PUBLIC "-//W3C//DTD SVG 1.1//EN" "http://www.w3.org/Graphics/SVG/1.1/DTD/svg11.dtd"><svg t="1505562324769" class="icon" style="" viewBox="0 0 1024 1024" version="1.1" xmlns="http://www.w3.org/2000/svg" p-id="1434" xmlns:xlink="http://www.w3.org/1999/xlink" width="20" height="20"><defs><style type="text/css"></style></defs><path d="M511.585326 529.405027c-18.691027 0-36.840418-3.687011-53.94135-10.926905-16.475339-6.934775-31.293007-16.914586-44.029117-29.634313-12.719727-12.719727-22.699538-27.537396-29.685507-44.046522-7.459005-17.625162 0.778153-37.955429 18.403315-45.399076 17.574992-7.442622 37.956453 0.810917 45.399075 18.403315 3.484282 8.255587 8.491081 15.663398 14.867839 22.056538 6.376758 6.360376 13.785592 11.368199 22.006367 14.817668 17.118339 7.239893 36.874206 7.239893 53.957733 0 8.238181-3.44947 15.612203-8.457293 22.006367-14.817668 6.360376-6.39314 11.367175-13.80095 14.817669-22.02275 7.442622-17.626186 27.807702-25.878702 45.400099-18.437103 17.624138 7.443646 25.878702 27.740125 18.469867 45.365287-6.968564 16.509127-16.982162 31.326795-29.701889 44.080311-12.720751 12.720751-27.53842 22.699538-44.046523 29.669126-17.083527 7.205081-35.250324 10.892092-53.923945 10.892092z" fill="#ffffff" p-id="1435"></path><path d="M891.050538 882.822596c-40.019582-127.80751-128.382933-225.575248-237.076551-271.853841 80.615611-48.443086 134.743309-136.537156 134.743309-237.416481 0-153.045259-124.121522-277.130945-277.13197-277.130945-153.095429 0-277.131969 124.085686-277.131969 277.130945 0 100.879326 54.110292 188.972371 134.743309 237.416481-108.694642 46.277569-197.05697 144.112883-237.077575 271.853841-5.716352 18.268162 4.4324 37.687171 22.699537 43.368711 18.284544 5.751164 37.686147-4.397587 43.403523-22.664726 47.395652-151.217624 173.325356-252.842338 313.363175-252.842338 140.054202 0 266.002336 101.624714 313.3642 252.842338 4.633081 14.816645 18.300926 24.289632 33.051018 24.289632 3.415681 0 6.899963-0.540611 10.351481-1.624906 18.268162-5.682564 28.416913-25.100549 22.698513-43.368711z m-587.313932-509.270322c0-114.613723 93.234998-207.848721 207.84872-207.848721s207.848721 93.234998 207.848721 207.848721-93.234998 207.848721-207.848721 207.848721-207.848721-93.233974-207.84872-207.848721z" fill="#ffffff" p-id="1436"></path></svg>