<?xml version="1.0" standalone="no"?><!DOCTYPE svg PUBLIC "-//W3C//DTD SVG 1.1//EN" "http://www.w3.org/Graphics/SVG/1.1/DTD/svg11.dtd"><svg t="1504680205573" class="icon" style="" viewBox="0 0 1024 1024" version="1.1" xmlns="http://www.w3.org/2000/svg" p-id="3077" xmlns:xlink="http://www.w3.org/1999/xlink" width="10" height="10"><defs><style type="text/css"></style></defs><path d="M847.686641 44.03567C640.48004 110.942579 671.714643 29.869156 555.139595 9.899492c-165.389782-28.247687-117.940495 166.413868-117.940495 166.413868l114.441537 423.203267c-35.672306-22.103175-78.086507-34.989582-123.487624-34.989582-127.669306 0-231.101925 101.213768-231.101925 226.152179 0 124.938412 103.432619 226.152179 231.101925 226.152179s231.101925-101.213768 231.101925-226.152179c0-3.242937-0.08534-6.485874-0.256021-9.728811 0.341362-0.853404 0.682724-1.87749 0.853404-3.072256 7.253938-41.134095-104.798067-563.161597-104.798067-563.161597s118.367197 63.32261 205.24377 4.267022C860.231686 151.137928 854.513876 41.902159 847.686641 44.03567L847.686641 44.03567zM847.686641 44.03567" p-id="3078" fill="#ffffff"></path></svg>