<?xml version="1.0" standalone="no"?><!DOCTYPE svg PUBLIC "-//W3C//DTD SVG 1.1//EN" "http://www.w3.org/Graphics/SVG/1.1/DTD/svg11.dtd"><svg t="1504254191900" class="icon" style="" viewBox="0 0 1024 1024" version="1.1" xmlns="http://www.w3.org/2000/svg" p-id="9689" xmlns:xlink="http://www.w3.org/1999/xlink" width="20" height="20"><defs><style type="text/css"></style></defs><path d="M792.235859 403.123966c0-213.403194-172.988993-386.446305-386.498382-386.446305C192.333262 16.677661 19.344269 189.720772 19.344269 403.123966c0 213.404215 172.988993 386.447326 386.393208 386.447326C619.246865 789.571293 792.235859 616.528181 792.235859 403.123966zM405.737477 692.970948c-160.052651 0-289.741809-129.742255-289.741809-289.846982 0-160.052651 129.689158-289.848003 289.741809-289.848003 160.158845 0 289.846982 129.795353 289.846982 289.848003C695.584459 563.229714 565.896322 692.970948 405.737477 692.970948z" p-id="9690" fill="#e6e6e6"></path><path d="M225.905057 423.224361l53.137133 0c0-87.884217 71.526161-159.35728 159.304183-159.35728l0-53.137133C321.273953 210.729948 225.905057 306.044725 225.905057 423.224361z" p-id="9691" fill="#e6e6e6"></path><path d="M970.464127 852.383368 760.160999 642.08024c-30.256277 50.356672-72.594234 92.589455-123.059142 122.847774l210.409322 210.409322c33.999637 33.945519 89.061547 33.945519 122.952948 0C1004.463764 941.443894 1004.463764 886.274768 970.464127 852.383368z" p-id="9692" fill="#e6e6e6"></path></svg>