<?xml version="1.0" standalone="no"?><!DOCTYPE svg PUBLIC "-//W3C//DTD SVG 1.1//EN" "http://www.w3.org/Graphics/SVG/1.1/DTD/svg11.dtd"><svg t="1505017660531" class="icon" style="" viewBox="0 0 1025 1024" version="1.1" xmlns="http://www.w3.org/2000/svg" p-id="7455" xmlns:xlink="http://www.w3.org/1999/xlink" width="20.01953125" height="20"><defs><style type="text/css"></style></defs><path d="M445.066504 925.17851c-227.852658 0-413.206956-185.354297-413.206956-413.206956 0-227.795766 185.354297-413.150064 413.206956-413.150064 41.474304 0 82.379688 6.087449 121.692094 18.205456 14.905717 4.608256 23.268848 20.367354 18.660592 35.329963-4.551364 14.905717-20.139786 23.382632-35.329963 18.717484C516.238458 160.606256 480.908495 155.315295 445.066504 155.315295c-196.675815 0-356.656259 160.037335-356.656259 356.656259 0 196.675815 159.980443 356.713151 356.656259 356.713151 159.411523 0 300.61759-107.070837 343.514195-260.394911 4.210012-15.019501 19.741541-23.723985 34.817934-19.627757 15.076393 4.210012 23.837769 19.798433 19.627757 34.817934C793.416523 801.153842 629.738097 925.17851 445.066504 925.17851z" p-id="7456" fill="#ffffff"></path><path d="M977.803656 302.267459l-204.526918-185.98011c-12.118007-11.037058-30.152786-1.308517-30.152786 16.271126l0 90.173899C426.462803 259.82599 294.530141 411.955331 336.800933 672.57781c57.17651-144.847158 184.500917-232.290238 406.323018-242.189455l0 109.175843c0 17.579643 18.03478 27.308184 30.152786 16.271126l204.526918-186.037002C996.919384 352.446247 996.919384 319.619534 977.803656 302.267459z" p-id="7457" fill="#ffffff"></path></svg>