<?xml version="1.0" standalone="no"?><!DOCTYPE svg PUBLIC "-//W3C//DTD SVG 1.1//EN" "http://www.w3.org/Graphics/SVG/1.1/DTD/svg11.dtd"><svg t="1504258642936" class="icon" style="" viewBox="0 0 1024 1024" version="1.1" xmlns="http://www.w3.org/2000/svg" p-id="11597" xmlns:xlink="http://www.w3.org/1999/xlink" width="20" height="20"><defs><style type="text/css"></style></defs><path d="M776.59833 64.055898l-530.038842 0c-100.449783 0-182.200692 81.750909-182.200692 182.200692l0 530.038842c0 100.450806 81.750909 182.200692 182.200692 182.200692l530.038842 0c100.449783 0 182.200692-81.750909 182.200692-182.200692l0-530.038842C958.799022 145.806807 877.048113 64.055898 776.59833 64.055898zM925.671531 776.295432c0 82.204234-66.86999 149.074224-149.0732 149.074224l-530.038842 0c-82.204234 0-149.0732-66.86999-149.0732-149.074224l0-530.038842c0-82.204234 66.86999-149.0732 149.0732-149.0732l530.038842 0c82.204234 0 149.0732 66.86999 149.0732 149.0732L925.671531 776.295432z" p-id="11598" fill="#e6e6e6"></path><path d="M685.683714 469.331201l-20.369933-0.002047-196.744943 0 0 0.014326-130.250506-0.013303c-9.598612-0.035816-17.413602 7.780197-17.366529 17.366529l-0.01228 52.123125c-0.011256 9.373485 7.561209 17.073864 16.926508 17.353227l347.81973 0c9.586332 0 17.390066-7.803733 17.35425-17.353227l0.022513-52.109822C703.049221 477.133911 695.28335 469.367017 685.683714 469.331201z" p-id="11599" fill="#e6e6e6"></path></svg>