<?xml version="1.0" standalone="no"?><!DOCTYPE svg PUBLIC "-//W3C//DTD SVG 1.1//EN" "http://www.w3.org/Graphics/SVG/1.1/DTD/svg11.dtd"><svg t="1504258767124" class="icon" style="" viewBox="0 0 1024 1024" version="1.1" xmlns="http://www.w3.org/2000/svg" p-id="13537" xmlns:xlink="http://www.w3.org/1999/xlink" width="20" height="20"><defs><style type="text/css"></style></defs><path d="M407.806963 366.396831l-0.165776-269.456988c-0.011256-19.010983-15.344476-34.43016-34.225499-34.418904-18.881023 0.01228-34.1948 15.4509-34.183544 34.46086l0.119727 194.447621L121.745808 72.528873c-12.799514-12.873192-33.528628-12.859889-46.38033 0.028653-12.785188 12.95608-12.772908 33.827433 0.028653 46.699602L293.068755 338.091158l-193.118346 0.12075c-18.879999 0.01228-34.1948 15.4509-34.183544 34.46086 0.011256 19.009959 15.3455 34.43016 34.225499 34.418904l267.615037-0.166799C392.577097 406.9085 407.824359 393.94935 407.806963 366.396831L407.806963 366.396831z" p-id="13538" fill="#e6e6e6"></path><path d="M655.570883 407.217539l267.615037-0.432859c18.881023-0.030699 34.17945-15.484669 34.149774-34.495652-0.030699-19.010983-15.379269-34.414811-34.259268-34.385135l-193.118346 0.312108L947.148681 118.895901c12.772908-12.900821 12.739139-33.772174-0.074701-46.699602-12.880355-12.860912-33.608445-12.827143-46.38033 0.074701L683.57161 291.660686l-0.310062-194.447621c-0.030699-19.009959-15.379269-34.414811-34.259268-34.384112-18.881023 0.030699-34.17945 15.484669-34.149774 34.495652l0.429789 269.456988C615.32732 394.332067 630.53365 407.257447 655.570883 407.217539L655.570883 407.217539z" p-id="13539" fill="#e6e6e6"></path><path d="M367.764991 613.848643l-267.615037-0.415462c-18.879999-0.029676-34.227546 15.376199-34.257222 34.387181-0.028653 19.010983 15.270798 34.463929 34.151821 34.492582l193.118346 0.299829L75.28873 901.243165c-12.812817 12.859889-12.844539 33.731242-0.071631 46.699602 12.840446 12.900821 33.568537 12.933567 46.38033 0.071631L339.40406 729.315444l-0.297782 194.447621c-0.028653 19.010983 15.270798 34.463929 34.151821 34.492582 18.881023 0.029676 34.227546-15.376199 34.257222-34.387181l0.412392-269.456988C407.969669 626.859981 392.734686 613.887528 367.764991 613.848643L367.764991 613.848643z" p-id="13540" fill="#e6e6e6"></path><path d="M614.842273 654.450363l0.472767 269.456988c0.033769 19.010983 15.384385 34.412764 34.264385 34.378995 18.881023-0.033769 34.177404-15.489786 34.143635-34.500768l-0.340761-194.447621 217.85575 218.650859c12.814864 12.858866 33.542954 12.822027 46.38033-0.082888 12.770861-12.971429 12.734022-33.842783-0.081864-46.699602l-217.923288-218.582297 193.118346-0.343831c18.879999-0.033769 34.177404-15.489786 34.143635-34.500768-0.033769-19.010983-15.384385-34.412764-34.264385-34.378995l-267.615037 0.475837C629.956505 613.922321 614.793154 626.898867 614.842273 654.450363L614.842273 654.450363z" p-id="13541" fill="#e6e6e6"></path></svg>